<svg xmlns="http://www.w3.org/2000/svg" height="700" width="700"><path index="0" stroke-width="2" stroke="#f90101" fill="none" d="M50 605.125 L49 605.125 L47 605.125 L46 605.125 L45 606.125 L45 606.125 L44 606.125 L43 607.125 L42 609.125 L41 611.125 L40 613.125 L40 613.125 L40 615.125 L39 616.125 L39 618.125 L39 621.125 L39 623.125 L39 625.125 L39 627.125 L40 630.125 L40 631.125 L41 632.125 L41 632.125 L42 633.125 L43 634.125 L44 634.125 L45 635.125 L46 635.125 L47 636.125 L48 636.125 L50 636.125 L52 636.125 L54 636.125 L54 636.125 L57 636.125 "/><path index="1" stroke-width="2" stroke="#f90101" fill="none" d="M69 594.125 L69 594.125 L68 594.125 L67 594.125 L66 595.125 L66 595.125 L65 597.125 L65 598.125 L64 599.125 L64 600.125 L64 601.125 L64 602.125 L64 603.125 L64 603.125 L66 605.125 L66 605.125 L67 605.125 L68 605.125 L69 605.125 L71 605.125 L72 605.125 L72 604.125 L73 603.125 L74 602.125 L75 602.125 L76 600.125 L76 600.125 L76 599.125 L76 598.125 L76 597.125 L76 597.125 L76 596.125 L76 596.125 L76 595.125 L76 595.125 L75 594.125 L74 594.125 L74 594.125 L73 594.125 L72 594.125 "/><path index="2" stroke-width="2" stroke="#f90101" fill="none" d="M601 607.125 L601 607.125 L601 607.125 L601 607.125 L601 607.125 L601 607.125 L602 608.125 L603 612.125 L603 615.125 L603 617.125 L604 619.125 L604 620.125 L604 621.125 L604 622.125 L604 622.125 L604 622.125 L604 622.125 L604 622.125 L604 622.125 L604 622.125 L604 622.125 L604 621.125 L604 620.125 L604 618.125 L604 617.125 L604 615.125 L605 613.125 L606 612.125 L606 612.125 L607 611.125 L607 611.125 L608 610.125 L608 610.125 L608 610.125 L609 609.125 L609 609.125 L610 609.125 L610 609.125 L611 609.125 L612 610.125 L612 611.125 L613 612.125 L614 614.125 L614 616.125 L614 617.125 L614 619.125 L614 619.125 L614 619.125 L614 620.125 L614 620.125 L614 620.125 L614 620.125 L614 620.125 L614 619.125 L614 619.125 L614 618.125 L614 617.125 L615 617.125 L615 616.125 L616 615.125 L616 614.125 L617 613.125 L617 613.125 L617 612.125 L618 612.125 L618 612.125 L619 612.125 L620 612.125 L620 612.125 L621 612.125 L621 612.125 L622 612.125 L623 612.125 L623 613.125 L623 613.125 L624 613.125 L624 615.125 L624 615.125 L625 615.125 L625 617.125 L625 618.125 L625 618.125 L625 619.125 L625 620.125 L625 620.125 L625 620.125 L625 621.125 L625 621.125 "/><path index="3" stroke-width="2" stroke="#f90101" fill="none" d="M634 611.125 L634 611.125 L634 611.125 L634 611.125 L634 611.125 L634 612.125 L634 614.125 L635 616.125 L635 618.125 L635 619.125 L635 620.125 L635 621.125 L635 622.125 L635 622.125 L635 622.125 L635 622.125 L635 622.125 L635 622.125 L635 622.125 L635 621.125 L635 621.125 L635 620.125 L636 619.125 L636 617.125 L637 615.125 L637 615.125 L637 614.125 L638 613.125 L639 612.125 L640 612.125 L640 611.125 L641 611.125 L641 610.125 L641 610.125 L642 610.125 L642 611.125 L642 611.125 L643 613.125 L644 615.125 L644 621.125 L644 623.125 L644 624.125 L644 625.125 L644 626.125 L644 626.125 L644 626.125 L644 626.125 L644 626.125 L644 624.125 L644 623.125 L644 621.125 L644 620.125 L645 619.125 L645 618.125 L646 617.125 L646 616.125 L647 616.125 L648 616.125 L648 616.125 L650 616.125 L650 616.125 L651 616.125 L651 616.125 L652 616.125 L652 616.125 L653 616.125 L654 617.125 L654 617.125 L654 618.125 L655 620.125 L655 622.125 L656 625.125 L656 626.125 L656 627.125 "/><path index="4" stroke-width="2" stroke="#f90101" fill="none" d="M97 620.125 L97 620.125 L97 620.125 L97 619.125 L97 619.125 L97 619.125 L97 619.125 L97 619.125 L97 619.125 L97 619.125 L97 619.125 L97 619.125 L98 620.125 L99 620.125 L100 621.125 L101 621.125 L101 621.125 L103 622.125 L104 623.125 L106 624.125 L107 624.125 L109 624.125 L110 624.125 L112 625.125 L114 625.125 L114 625.125 L116 625.125 L117 625.125 L119 625.125 L121 625.125 L123 625.125 L124 625.125 L126 624.125 L128 624.125 L130 624.125 L133 623.125 L133 623.125 L134 623.125 L136 623.125 L141 622.125 L143 622.125 L145 622.125 L147 621.125 L151 621.125 L155 621.125 L157 621.125 L159 621.125 L160 621.125 L164 621.125 L167 621.125 L173 621.125 L177 621.125 L179 621.125 L182 620.125 L187 620.125 L193 620.125 L198 620.125 L203 619.125 L206 619.125 L217 618.125 L222 618.125 L230 618.125 L235 618.125 L243 618.125 L251 618.125 L260 618.125 L269 617.125 L275 617.125 L283 617.125 L291 617.125 L296 617.125 L302 617.125 L305 617.125 L313 618.125 L320 618.125 L331 618.125 L337 618.125 L340 618.125 L346 619.125 L352 619.125 L361 620.125 L369 620.125 L375 620.125 L378 620.125 L395 620.125 L404 620.125 L415 619.125 L424 619.125 L428 619.125 L435 619.125 L442 619.125 L457 619.125 L465 619.125 L469 619.125 L476 620.125 L484 620.125 L492 621.125 L498 622.125 L505 622.125 L508 623.125 L517 623.125 L524 624.125 L534 625.125 L538 625.125 L540 625.125 L543 626.125 L546 627.125 L551 628.125 L554 628.125 L555 629.125 L558 629.125 L562 630.125 L565 631.125 L569 631.125 L571 632.125 L573 632.125 L576 632.125 L578 632.125 L582 633.125 L584 633.125 L584 633.125 L585 633.125 L585 633.125 L586 633.125 L587 633.125 L588 633.125 L589 633.125 L590 632.125 L591 632.125 L591 632.125 L591 632.125 L591 632.125 L591 632.125 L591 632.125 L591 632.125 L591 632.125 L590 632.125 "/><path index="5" stroke-width="2" stroke="#f90101" fill="none" d="M585 652.125 L585 652.125 L585 652.125 L585 651.125 L585 651.125 L585 651.125 L585 649.125 L585 648.125 L585 646.125 L584 643.125 L584 642.125 L584 639.125 L584 637.125 L584 636.125 L584 635.125 L583 632.125 L583 629.125 L583 626.125 L582 622.125 L582 618.125 L582 616.125 L582 615.125 L582 613.125 L582 611.125 L581 606.125 L581 601.125 L581 599.125 L581 596.125 L581 590.125 L581 586.125 L580 581.125 L580 576.125 L580 573.125 L580 568.125 L579 559.125 L579 550.125 L578 536.125 L578 532.125 L577 528.125 L577 520.125 L576 516.125 L576 503.125 L576 497.125 L576 495.125 L575 487.125 L575 479.125 L575 466.125 L575 460.125 L575 458.125 L575 456.125 L574 443.125 L574 429.125 L574 418.125 L575 414.125 L575 405.125 L575 392.125 L575 383.125 L575 369.125 L575 360.125 L575 355.125 L575 346.125 L575 334.125 L575 322.125 L575 310.125 L575 306.125 L575 302.125 L574 292.125 L574 287.125 L573 280.125 L573 277.125 L572 271.125 L572 263.125 L571 255.125 L571 247.125 L571 242.125 L571 236.125 L571 226.125 L571 220.125 L571 208.125 L572 202.125 L572 193.125 L572 187.125 L573 179.125 L573 174.125 L573 172.125 L573 168.125 L573 163.125 L573 160.125 L573 156.125 L573 155.125 L573 154.125 L573 153.125 L573 153.125 L573 153.125 L573 153.125 "/><path index="6" stroke-width="2" stroke="#f90101" fill="none" d="M568 170.125 L568 170.125 L568 170.125 L568 170.125 L568 170.125 L568 170.125 L569 169.125 L570 168.125 L572 166.125 L574 162.125 L575 161.125 L577 157.125 L578 154.125 L578 153.125 L578 152.125 L578 152.125 L578 152.125 L578 151.125 L578 151.125 L578 151.125 L578 151.125 L578 151.125 L578 151.125 L579 151.125 L580 153.125 L582 156.125 L585 159.125 L586 160.125 L588 163.125 L590 165.125 L591 167.125 "/><path index="7" stroke-width="2" stroke="#f90101" fill="none" d="M105 631.125 L105 631.125 L105 630.125 L105 630.125 L106 630.125 L106 629.125 L106 627.125 L107 626.125 L107 623.125 L108 622.125 L108 621.125 L108 619.125 L109 616.125 L109 614.125 L109 612.125 L109 609.125 L109 608.125 L109 603.125 L109 601.125 L109 600.125 L109 597.125 L110 594.125 L110 586.125 L111 578.125 L112 569.125 L114 554.125 L115 542.125 L116 530.125 L116 523.125 L116 514.125 L116 510.125 L117 502.125 L117 496.125 L117 490.125 L117 488.125 L118 477.125 L118 471.125 L118 463.125 L118 458.125 L118 455.125 L118 449.125 L118 444.125 L119 433.125 L119 428.125 L119 426.125 L119 423.125 L119 421.125 L119 413.125 L119 405.125 L119 400.125 L119 394.125 L119 383.125 L118 377.125 L118 368.125 L118 359.125 L118 355.125 L118 349.125 L118 343.125 L117 334.125 L117 328.125 L117 322.125 L117 319.125 L117 311.125 L117 304.125 L117 297.125 L117 294.125 L117 293.125 L117 291.125 L116 289.125 L116 286.125 L116 285.125 L116 284.125 L116 282.125 L116 280.125 L116 275.125 L116 270.125 L116 266.125 L116 261.125 L117 252.125 L117 247.125 L117 240.125 L118 234.125 L118 232.125 L118 228.125 L118 224.125 L118 219.125 L118 215.125 L118 211.125 L117 209.125 L117 204.125 L116 199.125 L115 196.125 L114 190.125 L114 187.125 L114 183.125 L114 178.125 L114 170.125 L115 167.125 L115 165.125 L115 164.125 L114 162.125 L114 162.125 L114 161.125 L113 161.125 L113 161.125 L113 161.125 L113 161.125 L113 161.125 L113 161.125 L113 161.125 L113 161.125 L113 161.125 L113 161.125 L113 161.125 L113 161.125 L113 161.125 L113 161.125 L112 163.125 L111 165.125 L110 168.125 L109 170.125 L107 172.125 L106 175.125 L104 178.125 L104 178.125 L104 179.125 L103 179.125 L103 179.125 L103 179.125 L103 179.125 L103 179.125 L103 179.125 L103 179.125 L103 179.125 L104 178.125 L105 177.125 L107 175.125 L108 172.125 L110 170.125 L111 168.125 L112 165.125 L113 163.125 L113 162.125 L113 161.125 L113 160.125 L113 160.125 L113 160.125 L113 160.125 L113 160.125 L113 160.125 L113 160.125 L113 160.125 L113 160.125 L113 160.125 L113 160.125 L113 160.125 L113 160.125 L114 160.125 L114 160.125 L115 160.125 L115 161.125 L118 164.125 L124 172.125 L125 175.125 L128 179.125 "/><path index="8" stroke-width="2" stroke="#f90101" fill="none" d="M574 623.125 L574 623.125 L574 623.125 L574 623.125 L574 623.125 L574 623.125 L574 623.125 L575 623.125 L577 624.125 L578 625.125 L579 625.125 L581 626.125 L583 627.125 L583 627.125 L583 627.125 L583 627.125 L583 627.125 L583 629.125 L583 631.125 L583 633.125 L582 636.125 L580 638.125 L579 640.125 L577 642.125 L576 643.125 "/><path index="9" stroke-width="2" stroke="#f90101" fill="none" d="M116 646.125 L116 646.125 L116 646.125 L116 646.125 L116 646.125 L116 646.125 L116 646.125 L115 646.125 L115 646.125 L114 647.125 L113 649.125 L112 650.125 L111 651.125 L110 652.125 L110 653.125 L110 654.125 L110 657.125 L110 658.125 L110 660.125 L110 660.125 L111 661.125 L112 661.125 L113 662.125 L115 662.125 L116 662.125 L117 662.125 L119 660.125 L121 659.125 L122 657.125 L123 654.125 L123 653.125 L123 651.125 L123 650.125 L123 648.125 L122 646.125 L122 645.125 L121 645.125 L118 644.125 L117 644.125 L115 644.125 L115 644.125 "/><path index="10" stroke-width="2" stroke="#f90101" fill="none" d="M165 652.125 L165 652.125 L165 652.125 L165 652.125 L165 652.125 L165 651.125 L165 651.125 L164 650.125 L164 648.125 L164 647.125 L164 645.125 L165 643.125 L165 643.125 L165 642.125 L166 642.125 L167 642.125 L168 642.125 L168 642.125 L168 642.125 L169 644.125 L170 645.125 L171 648.125 L171 649.125 L171 650.125 L171 653.125 L171 655.125 L171 657.125 L171 658.125 L171 659.125 L170 660.125 L169 662.125 L169 662.125 L168 663.125 L168 663.125 L168 663.125 L168 663.125 L168 663.125 L169 663.125 L171 663.125 L172 663.125 L173 663.125 "/><path index="11" stroke-width="2" stroke="#f90101" fill="none" d="M209 642.125 L209 642.125 L209 642.125 L209 642.125 L209 642.125 L209 642.125 L209 642.125 L209 642.125 L209 642.125 L209 642.125 L209 642.125 L208 642.125 L207 644.125 L206 646.125 L205 647.125 L205 648.125 L205 649.125 L205 649.125 L205 650.125 L207 650.125 L210 650.125 L212 650.125 L213 650.125 L217 650.125 L219 650.125 "/><path index="12" stroke-width="2" stroke="#f90101" fill="none" d="M212 639.125 L212 639.125 L212 639.125 L212 639.125 L212 640.125 L212 644.125 L212 648.125 L213 651.125 L213 655.125 L213 656.125 "/><path index="13" stroke-width="2" stroke="#f90101" fill="none" d="M254 641.125 L254 641.125 L254 641.125 L252 641.125 L252 642.125 L251 644.125 L251 646.125 L251 649.125 L251 650.125 L251 651.125 L251 653.125 L253 655.125 L255 656.125 L255 656.125 L257 657.125 L259 657.125 L261 657.125 L262 656.125 L262 654.125 L262 653.125 L262 651.125 L262 650.125 L261 649.125 L259 649.125 L259 649.125 L258 649.125 L257 649.125 L255 650.125 L254 651.125 "/><path index="14" stroke-width="2" stroke="#f90101" fill="none" d="M290 637.125 L290 637.125 L290 637.125 L288 637.125 L287 637.125 L285 638.125 L285 638.125 L285 639.125 L285 639.125 L285 641.125 L287 643.125 L289 644.125 L290 645.125 L292 646.125 L293 648.125 L296 650.125 L297 651.125 L297 653.125 L298 653.125 L298 655.125 L297 656.125 L296 656.125 L295 656.125 L295 656.125 L294 656.125 L293 656.125 L293 655.125 L293 654.125 L292 653.125 L292 649.125 L293 645.125 L294 643.125 "/><path index="15" stroke-width="2" stroke="#f90101" fill="none" d="M324 642.125 L324 642.125 L324 641.125 L324 641.125 L324 641.125 L324 641.125 L324 641.125 L325 640.125 L327 639.125 L329 638.125 L330 638.125 L330 637.125 L331 637.125 L331 637.125 L331 637.125 L331 639.125 L331 640.125 L331 646.125 "/><path index="16" stroke-width="2" stroke="#f90101" fill="none" d="M336 641.125 L336 641.125 L336 641.125 L336 639.125 L337 638.125 L339 637.125 L339 637.125 L341 637.125 L342 637.125 L343 637.125 L343 638.125 L344 640.125 L344 641.125 L344 642.125 L343 646.125 L342 647.125 L341 649.125 L341 649.125 L341 650.125 L341 650.125 L341 650.125 L341 650.125 L342 650.125 L343 650.125 L344 651.125 "/><path index="17" stroke-width="2" stroke="#f90101" fill="none" d="M368 639.125 L368 639.125 L368 639.125 L368 638.125 L368 638.125 L368 638.125 L368 638.125 L368 638.125 L369 638.125 L372 637.125 L374 636.125 L375 636.125 L376 636.125 L377 636.125 L378 636.125 L379 638.125 L379 638.125 L379 639.125 L379 643.125 L379 645.125 L379 647.125 "/><path index="18" stroke-width="2" stroke="#f90101" fill="none" d="M390 635.125 L390 635.125 L390 635.125 L390 635.125 L390 635.125 L390 635.125 L390 635.125 L389 635.125 L388 637.125 L388 639.125 L387 641.125 L387 642.125 L386 643.125 L386 644.125 L386 644.125 L386 645.125 L387 645.125 L388 646.125 L390 646.125 L391 646.125 L393 646.125 L394 646.125 L394 646.125 L395 646.125 "/><path index="19" stroke-width="2" stroke="#f90101" fill="none" d="M393 639.125 L393 639.125 L393 639.125 L393 639.125 L393 639.125 L393 641.125 L393 644.125 L393 646.125 L393 649.125 L393 652.125 L393 653.125 "/><path index="20" stroke-width="2" stroke="#f90101" fill="none" d="M421 637.125 L421 637.125 L421 637.125 L421 637.125 L422 637.125 L424 636.125 L425 636.125 L427 635.125 L429 634.125 L430 634.125 L431 634.125 L432 634.125 L432 634.125 L432 635.125 L433 638.125 L434 642.125 L434 644.125 L435 645.125 "/><path index="21" stroke-width="2" stroke="#f90101" fill="none" d="M448 632.125 L448 632.125 L448 631.125 L448 632.125 L448 632.125 L447 634.125 L446 637.125 L446 640.125 L445 642.125 L445 643.125 L445 645.125 L445 646.125 L446 647.125 L446 647.125 L448 648.125 L448 648.125 L449 648.125 L450 647.125 L451 647.125 L451 646.125 L451 645.125 L451 644.125 L451 643.125 L450 643.125 L450 642.125 L450 642.125 L449 642.125 L448 642.125 "/><path index="22" stroke-width="2" stroke="#f90101" fill="none" d="M485 635.125 L485 635.125 L485 635.125 L483 634.125 L482 634.125 L481 636.125 L481 637.125 L481 637.125 L481 638.125 L481 640.125 L482 641.125 L482 642.125 L483 642.125 L483 642.125 L483 643.125 L484 643.125 L484 643.125 L484 643.125 L484 643.125 L484 643.125 L484 643.125 L484 643.125 L484 643.125 L484 643.125 L484 643.125 L484 643.125 L484 643.125 L484 643.125 L484 643.125 L484 644.125 L484 644.125 L484 644.125 L484 644.125 L484 644.125 L484 644.125 L484 644.125 L484 644.125 L484 644.125 L484 644.125 L484 644.125 L484 644.125 L484 644.125 L484 644.125 L484 644.125 L484 644.125 L484 644.125 L484 644.125 L484 644.125 L484 644.125 L484 644.125 L484 644.125 L484 644.125 L484 644.125 L484 644.125 L484 644.125 L484 644.125 L484 644.125 L484 644.125 L484 644.125 L484 644.125 L484 644.125 L484 644.125 L484 644.125 L484 644.125 L484 644.125 L484 644.125 L484 644.125 L484 644.125 L484 644.125 L484 644.125 L484 644.125 L484 644.125 L484 644.125 L484 644.125 L484 644.125 L484 644.125 L484 644.125 L484 644.125 L484 644.125 L484 644.125 L484 644.125 L484 644.125 L484 644.125 L484 644.125 L484 644.125 L484 644.125 L484 644.125 L484 644.125 L484 644.125 L484 644.125 L485 644.125 L485 644.125 L485 644.125 L485 644.125 L485 644.125 L485 644.125 L485 644.125 L485 644.125 L485 644.125 L485 644.125 L485 644.125 L485 644.125 L485 644.125 L485 644.125 L485 644.125 L485 644.125 L485 644.125 L485 644.125 L485 644.125 L485 644.125 L485 644.125 L485 644.125 L485 644.125 L485 644.125 L485 644.125 L485 644.125 L485 644.125 L485 644.125 L485 644.125 L485 644.125 L485 644.125 L485 644.125 L485 644.125 L485 644.125 L485 644.125 L485 644.125 L485 644.125 L485 644.125 L485 644.125 L485 644.125 L485 644.125 L485 644.125 L485 644.125 L485 644.125 L485 644.125 L485 644.125 "/><path index="23" stroke-width="2" stroke="#f90101" fill="none" d="M473 636.125 L473 636.125 L473 636.125 L472 635.125 L472 635.125 L472 635.125 L472 635.125 L472 635.125 L472 635.125 L472 635.125 L472 635.125 L473 635.125 L473 635.125 L474 635.125 L475 635.125 L477 634.125 L478 634.125 L478 633.125 L478 633.125 L479 633.125 L479 633.125 L479 633.125 L479 633.125 L479 633.125 L479 633.125 L479 635.125 L480 637.125 L480 640.125 L480 643.125 L480 644.125 L480 645.125 L480 647.125 L480 648.125 L480 648.125 L480 648.125 L480 648.125 L480 648.125 "/><path index="24" stroke-width="2" stroke="#f90101" fill="none" d="M485 643.125 L485 643.125 L485 643.125 L485 643.125 L485 643.125 L485 643.125 L485 643.125 L485 643.125 L485 643.125 L485 643.125 L485 643.125 L485 643.125 L485 643.125 L485 643.125 L485 643.125 L485 643.125 L485 643.125 L485 644.125 L485 644.125 L485 644.125 L486 645.125 L486 646.125 L487 646.125 L487 647.125 L488 648.125 L488 649.125 L488 650.125 L488 650.125 L488 651.125 L489 652.125 L489 652.125 L489 652.125 L488 652.125 L487 652.125 L486 652.125 L486 652.125 L486 652.125 L485 651.125 L485 651.125 L484 651.125 L484 650.125 L484 650.125 L484 649.125 L484 648.125 L484 647.125 L485 646.125 L485 645.125 L485 645.125 L485 644.125 L485 643.125 L486 642.125 L486 641.125 L486 641.125 L487 639.125 L487 639.125 L487 638.125 L487 637.125 L487 637.125 L487 637.125 L487 636.125 L487 636.125 L487 635.125 L487 635.125 L487 635.125 L487 634.125 L487 634.125 L486 634.125 L486 634.125 L485 634.125 "/><path index="25" stroke-width="2" stroke="#f90101" fill="none" d="M512 639.125 L512 639.125 L512 639.125 L512 637.125 L513 636.125 L513 635.125 L514 634.125 L515 633.125 L515 633.125 L515 633.125 L515 633.125 L516 633.125 L516 635.125 L516 637.125 L515 639.125 L514 641.125 L514 641.125 L514 642.125 L514 643.125 L514 644.125 L514 644.125 L514 644.125 L514 645.125 L514 645.125 L515 645.125 L516 645.125 L517 646.125 L519 646.125 L521 646.125 L523 646.125 "/><path index="26" stroke-width="2" stroke="#f90101" fill="none" d="M532 637.125 L532 637.125 L532 637.125 L532 637.125 L530 640.125 L531 642.125 L532 642.125 L532 643.125 L533 643.125 L534 642.125 L535 640.125 L535 639.125 L535 638.125 L535 638.125 L535 638.125 L534 638.125 "/><path index="27" stroke-width="2" stroke="#f90101" fill="none" d="M553 646.125 L553 646.125 L553 646.125 L552 646.125 L552 645.125 L552 645.125 L552 643.125 L552 643.125 L552 642.125 L552 642.125 L553 641.125 L554 641.125 L555 641.125 L555 640.125 L556 640.125 L557 641.125 L558 642.125 L559 643.125 L559 644.125 L559 645.125 L559 648.125 L559 648.125 L559 649.125 L558 650.125 L557 652.125 L557 653.125 L556 654.125 L556 654.125 L556 654.125 L556 654.125 L557 654.125 L559 654.125 L561 654.125 "/><path index="28" stroke-width="2" stroke="#f90101" fill="none" d="M564 648.125 L564 648.125 L564 648.125 L564 647.125 L564 646.125 L565 645.125 L565 645.125 L565 645.125 L566 645.125 L566 645.125 L567 645.125 L567 645.125 L567 645.125 L567 645.125 L568 646.125 L568 648.125 L568 651.125 L568 651.125 L568 652.125 L567 653.125 L567 654.125 L566 655.125 L566 655.125 L566 655.125 L566 655.125 L566 655.125 L566 655.125 L566 655.125 L566 656.125 L568 656.125 L569 657.125 L571 657.125 L573 657.125 L574 657.125 L575 657.125 L576 657.125 L577 657.125 "/><path index="29" stroke-width="2" stroke="#f90101" fill="none" d="M111 526.125 L111 526.125 L111 526.125 L111 526.125 L111 526.125 L111 526.125 L113 526.125 L113 526.125 L115 527.125 L119 527.125 L121 528.125 L124 528.125 L128 528.125 L129 528.125 L131 528.125 L132 528.125 "/><path index="30" stroke-width="2" stroke="#f90101" fill="none" d="M71 520.125 L71 520.125 L72 518.125 L72 517.125 L74 515.125 L75 515.125 L77 514.125 L79 515.125 L80 516.125 L80 517.125 L81 519.125 L81 523.125 L80 525.125 L79 529.125 L78 529.125 L78 530.125 L76 532.125 L75 534.125 L75 534.125 L75 534.125 L75 534.125 L75 534.125 L76 534.125 L77 534.125 L79 533.125 L81 533.125 "/><path index="31" stroke-width="2" stroke="#f90101" fill="none" d="M97 519.125 L97 519.125 L95 520.125 L93 522.125 L93 523.125 L92 524.125 L91 527.125 L91 531.125 L92 533.125 L92 534.125 L93 535.125 L95 535.125 L97 536.125 L99 536.125 L100 535.125 L101 533.125 L103 530.125 L104 527.125 L105 524.125 L105 522.125 L105 522.125 L105 520.125 L104 520.125 L101 519.125 L98 519.125 L97 519.125 "/><path index="32" stroke-width="2" stroke="#f90101" fill="none" d="M114 462.125 L114 462.125 L114 462.125 L114 462.125 L114 462.125 L113 462.125 L113 462.125 L113 462.125 L113 462.125 L113 462.125 L113 462.125 L114 462.125 L115 462.125 L117 462.125 L121 462.125 L124 462.125 L127 462.125 L128 462.125 L129 462.125 "/><path index="33" stroke-width="2" stroke="#f90101" fill="none" d="M73 452.125 L73 452.125 L73 452.125 L74 449.125 L76 448.125 L76 448.125 L77 448.125 L78 449.125 L78 452.125 L78 456.125 L77 459.125 L77 460.125 L75 462.125 L73 465.125 L73 466.125 L73 467.125 L73 467.125 L73 467.125 L75 468.125 L77 469.125 L81 469.125 "/><path index="34" stroke-width="2" stroke="#f90101" fill="none" d="M92 450.125 L92 450.125 L92 450.125 L92 450.125 L92 450.125 L92 450.125 L92 450.125 L92 450.125 L93 450.125 L96 450.125 L98 450.125 L99 450.125 L101 450.125 L103 450.125 L104 450.125 L104 450.125 "/><path index="35" stroke-width="2" stroke="#f90101" fill="none" d="M93 454.125 L93 454.125 L93 454.125 L93 456.125 L93 457.125 L93 461.125 L93 463.125 L93 464.125 L93 464.125 L93 464.125 L93 464.125 L93 464.125 L93 464.125 L93 464.125 L94 464.125 L95 464.125 L98 464.125 L99 464.125 L101 465.125 L101 466.125 L103 467.125 L103 468.125 L104 469.125 L104 471.125 L105 472.125 L105 474.125 L105 474.125 L105 476.125 L104 476.125 L104 476.125 L103 477.125 L101 477.125 L98 478.125 L97 479.125 L95 479.125 L94 479.125 "/><path index="36" stroke-width="2" stroke="#f90101" fill="none" d="M117 396.125 L117 396.125 L117 396.125 L117 396.125 L117 396.125 L117 396.125 L117 396.125 L118 396.125 L120 396.125 L121 397.125 L122 397.125 L124 397.125 L125 397.125 L127 397.125 L127 397.125 "/><path index="37" stroke-width="2" stroke="#f90101" fill="none" d="M74 384.125 L74 384.125 L74 384.125 L74 384.125 L78 381.125 L82 382.125 L82 383.125 L83 383.125 L83 386.125 L83 389.125 L81 392.125 L80 393.125 L79 393.125 L78 393.125 L78 394.125 L78 395.125 L82 398.125 L83 399.125 L84 400.125 L85 401.125 L85 402.125 L86 404.125 L84 406.125 L83 406.125 L79 407.125 L75 407.125 "/><path index="38" stroke-width="2" stroke="#f90101" fill="none" d="M93 387.125 L93 387.125 L90 390.125 L89 395.125 L89 399.125 L90 402.125 L90 403.125 L91 405.125 L94 407.125 L96 407.125 L98 407.125 L101 405.125 L102 404.125 L104 400.125 L104 397.125 L104 395.125 L104 394.125 L104 393.125 L103 391.125 L100 389.125 L98 388.125 L96 387.125 "/><path index="39" stroke-width="2" stroke="#f90101" fill="none" d="M115 345.125 L115 345.125 L115 345.125 L115 344.125 L115 344.125 L115 344.125 L115 344.125 L116 344.125 L118 344.125 L120 344.125 L122 344.125 "/><path index="40" stroke-width="2" stroke="#f90101" fill="none" d="M71 334.125 L71 334.125 L71 334.125 L72 333.125 L75 333.125 L78 332.125 L80 332.125 L81 334.125 L81 336.125 L80 338.125 L78 341.125 L77 341.125 L77 342.125 L77 342.125 L78 343.125 L81 346.125 L84 348.125 L85 349.125 L86 350.125 L86 352.125 L86 354.125 L83 356.125 L81 356.125 L80 357.125 L77 357.125 "/><path index="41" stroke-width="2" stroke="#f90101" fill="none" d="M92 336.125 L92 336.125 L92 336.125 L95 336.125 L97 335.125 L99 335.125 L100 335.125 "/><path index="42" stroke-width="2" stroke="#f90101" fill="none" d="M93 336.125 L93 336.125 L93 336.125 L93 343.125 L93 346.125 L93 346.125 L93 346.125 L93 346.125 L93 346.125 L93 345.125 L96 345.125 L97 345.125 L98 346.125 L102 348.125 L104 350.125 L105 352.125 L106 354.125 L106 354.125 L106 356.125 L106 357.125 L105 357.125 L103 358.125 L102 359.125 L100 359.125 L97 360.125 L95 360.125 "/><path index="43" stroke-width="2" stroke="#f90101" fill="none" d="M116 291.125 L116 291.125 L116 291.125 L116 291.125 L116 291.125 L116 291.125 L116 291.125 L116 291.125 L116 291.125 L116 291.125 L118 291.125 L121 291.125 L126 290.125 "/><path index="44" stroke-width="2" stroke="#f90101" fill="none" d="M84 280.125 L84 280.125 L84 280.125 L84 280.125 L84 280.125 L84 280.125 L82 281.125 L81 281.125 L80 283.125 L78 286.125 L77 287.125 L77 289.125 L77 289.125 L77 289.125 L78 290.125 L80 291.125 L82 291.125 L83 291.125 L85 291.125 L86 291.125 L87 291.125 "/><path index="45" stroke-width="2" stroke="#f90101" fill="none" d="M84 281.125 L84 281.125 L84 281.125 L84 281.125 L84 282.125 L83 287.125 L83 290.125 L82 293.125 L82 297.125 "/><path index="46" stroke-width="2" stroke="#f90101" fill="none" d="M97 283.125 L97 283.125 L97 283.125 L97 284.125 L95 288.125 L95 291.125 L94 295.125 L94 298.125 L94 299.125 L94 300.125 L95 302.125 L98 304.125 L100 304.125 L101 304.125 L103 304.125 L104 303.125 L106 300.125 L106 299.125 L107 296.125 L107 296.125 L107 294.125 L107 294.125 L105 292.125 L103 291.125 L102 290.125 L100 290.125 L98 290.125 "/><path index="47" stroke-width="2" stroke="#f90101" fill="none" d="M283 461.125 L283 461.125 L283 461.125 L283 461.125 L283 461.125 L283 461.125 L283 461.125 L283 461.125 L283 461.125 L283 461.125 L283 461.125 L282 461.125 L282 461.125 L282 461.125 L282 461.125 L282 461.125 L282 461.125 L282 461.125 L281 461.125 L281 461.125 L281 461.125 L281 461.125 L281 461.125 L281 461.125 L280 461.125 L280 461.125 L280 461.125 L280 461.125 L280 461.125 L280 461.125 L281 461.125 L281 461.125 L281 460.125 L281 460.125 L281 460.125 L281 459.125 L281 459.125 L280 459.125 L280 459.125 L280 459.125 L280 459.125 L280 459.125 L280 460.125 L280 460.125 L280 460.125 L280 461.125 L281 461.125 L281 461.125 L282 461.125 L283 461.125 L283 461.125 L283 461.125 L283 460.125 L282 460.125 L281 459.125 L281 459.125 L281 459.125 L280 459.125 L280 459.125 L279 459.125 L279 460.125 L279 460.125 L279 460.125 L279 461.125 L280 461.125 L281 461.125 L282 461.125 L282 461.125 L283 461.125 L283 461.125 L283 460.125 L283 460.125 L283 460.125 L283 459.125 L283 459.125 L282 459.125 L282 459.125 L282 459.125 L281 459.125 L281 459.125 L281 460.125 L281 460.125 L281 461.125 L281 461.125 L281 461.125 L282 462.125 L284 462.125 L284 462.125 L285 462.125 L285 462.125 L285 462.125 L285 462.125 L285 461.125 L285 461.125 L285 461.125 L284 460.125 L283 460.125 L283 460.125 L283 460.125 L283 460.125 L282 460.125 L282 460.125 L282 460.125 L282 460.125 L282 460.125 L282 460.125 L282 461.125 L282 461.125 L282 461.125 L282 461.125 L282 462.125 L283 462.125 L284 462.125 L284 461.125 L285 461.125 L285 460.125 L285 460.125 L285 460.125 L285 459.125 L284 459.125 L284 459.125 L284 459.125 L283 459.125 L283 458.125 L282 458.125 L282 458.125 L281 459.125 L281 460.125 L281 460.125 L281 461.125 L281 462.125 L281 462.125 L282 463.125 L283 463.125 L284 463.125 L285 463.125 L285 463.125 L286 463.125 L286 463.125 L286 462.125 L286 462.125 L287 461.125 L287 461.125 L287 460.125 L286 459.125 L286 459.125 L286 459.125 L285 459.125 L285 459.125 L284 459.125 L283 459.125 L282 459.125 L282 459.125 L281 460.125 L281 461.125 L281 461.125 "/><path index="48" stroke-width="2" stroke="#f90101" fill="none" d="M302 635.125 L302 635.125 L302 635.125 L302 635.125 L302 635.125 L302 635.125 L302 635.125 L302 635.125 L302 635.125 L302 635.125 L302 635.125 L302 635.125 L302 635.125 L302 635.125 L302 635.125 L302 635.125 L302 635.125 L302 635.125 L302 636.125 L302 636.125 L303 636.125 L303 637.125 L303 637.125 L304 638.125 L305 640.125 L306 641.125 L306 642.125 L307 643.125 L308 644.125 L308 644.125 L308 645.125 L309 646.125 L309 646.125 L309 646.125 "/><path index="49" stroke-width="2" stroke="#f90101" fill="none" d="M315 634.125 L315 634.125 L315 634.125 L313 635.125 L313 636.125 L312 638.125 L312 639.125 L312 639.125 L312 639.125 L312 641.125 L313 642.125 L314 643.125 L314 643.125 L314 644.125 L315 644.125 L315 644.125 L315 644.125 L316 644.125 L316 644.125 L317 644.125 L318 644.125 L319 643.125 L319 643.125 L319 642.125 L320 642.125 L320 641.125 L320 640.125 L320 639.125 L320 638.125 L320 638.125 L319 636.125 L319 636.125 L319 635.125 L318 635.125 L318 634.125 L318 634.125 L317 634.125 L316 634.125 L315 634.125 L315 634.125 L314 634.125 "/><path index="50" stroke-width="2" stroke="#f90101" fill="none" d="M321 366.125 L321 366.125 L321 366.125 L321 366.125 L321 366.125 L321 366.125 L321 366.125 L321 366.125 L321 366.125 L321 366.125 L321 366.125 L321 366.125 L321 366.125 L321 366.125 L321 366.125 L321 366.125 L321 366.125 L321 366.125 L321 366.125 L321 366.125 L322 366.125 L322 366.125 L322 366.125 L322 366.125 L322 366.125 L322 366.125 L322 366.125 L322 366.125 L322 366.125 L322 366.125 L322 366.125 L321 366.125 L321 366.125 L321 367.125 L321 367.125 L321 367.125 L322 367.125 L322 368.125 L322 368.125 L322 368.125 L322 368.125 L322 368.125 L322 368.125 L322 367.125 L322 367.125 L322 367.125 L321 366.125 L321 366.125 L321 366.125 L321 366.125 L321 366.125 L321 366.125 L321 366.125 L321 366.125 L321 366.125 L322 367.125 L322 367.125 L322 367.125 L322 367.125 L322 367.125 L322 367.125 L322 366.125 L322 366.125 L322 366.125 L322 366.125 L322 366.125 L322 366.125 L322 366.125 L322 366.125 L322 366.125 L322 366.125 L323 366.125 L323 366.125 L323 366.125 L323 366.125 L323 366.125 L323 366.125 L323 366.125 L323 366.125 L323 366.125 L323 366.125 L322 366.125 L322 366.125 L322 366.125 L322 366.125 L322 367.125 L323 367.125 L325 368.125 L326 368.125 L326 368.125 L326 368.125 L326 367.125 L326 367.125 L325 366.125 L325 366.125 L324 366.125 L323 366.125 L323 366.125 L323 366.125 "/><path index="51" stroke-width="2" stroke="#f90101" fill="none" d="M286 460.125 L286 460.125 L286 460.125 L286 460.125 L286 460.125 L286 460.125 L286 460.125 L286 460.125 L286 460.125 L286 460.125 L286 460.125 L286 460.125 L286 460.125 L286 460.125 L286 460.125 L286 459.125 L286 459.125 L286 459.125 L286 459.125 L286 459.125 L286 458.125 L287 457.125 L287 457.125 L287 456.125 L287 455.125 L287 454.125 L288 453.125 L288 451.125 L288 450.125 L288 449.125 L288 449.125 L289 448.125 L289 446.125 L289 445.125 L290 445.125 L290 444.125 L290 443.125 L290 443.125 L290 442.125 L291 440.125 L291 440.125 L291 440.125 L292 439.125 L292 437.125 L292 437.125 L293 436.125 L293 435.125 L294 434.125 L294 432.125 L295 431.125 L295 430.125 L295 430.125 L296 429.125 L296 428.125 L297 426.125 L298 424.125 L298 424.125 L298 422.125 L299 421.125 L299 420.125 L300 418.125 L300 417.125 L301 414.125 L301 413.125 L302 411.125 L302 410.125 L303 408.125 L303 407.125 L303 406.125 L304 405.125 L304 403.125 L304 401.125 L304 401.125 L305 400.125 L305 398.125 L305 397.125 L306 396.125 L306 394.125 L306 394.125 L307 393.125 L307 391.125 L307 390.125 L308 389.125 L308 389.125 L308 389.125 L308 388.125 L309 386.125 L310 385.125 L310 384.125 L311 383.125 L311 382.125 L312 381.125 L312 380.125 L312 380.125 L313 379.125 L313 379.125 L313 378.125 L313 377.125 L314 376.125 L314 375.125 L314 375.125 L314 375.125 L314 374.125 L315 374.125 L315 373.125 L315 373.125 L315 373.125 L316 372.125 L316 371.125 L316 371.125 L316 371.125 L317 370.125 L317 370.125 L317 369.125 L318 368.125 L318 368.125 L318 368.125 L318 367.125 L319 367.125 L319 366.125 L319 366.125 L320 365.125 L320 364.125 L320 364.125 L321 363.125 L321 363.125 "/><path index="52" stroke-width="2" stroke="#f90101" fill="none" d="M575 499.125 L575 499.125 L575 499.125 L575 499.125 L575 499.125 L575 499.125 L575 499.125 L575 499.125 L576 499.125 L577 499.125 L577 499.125 L578 499.125 L578 499.125 L578 499.125 L578 499.125 L577 499.125 L574 499.125 L573 499.125 L573 499.125 L572 499.125 L572 499.125 L572 499.125 L573 500.125 L575 500.125 L578 500.125 L579 500.125 L579 500.125 L579 500.125 L579 500.125 L578 500.125 L576 500.125 L576 500.125 L575 500.125 L575 500.125 L575 500.125 "/><path index="53" stroke-width="2" stroke="#f90101" fill="none" d="M118 492.125 L118 492.125 L118 492.125 L118 492.125 L118 492.125 L118 492.125 L118 492.125 L118 492.125 L118 492.125 L119 492.125 L121 492.125 L122 492.125 L122 492.125 L123 492.125 L123 492.125 L123 492.125 L123 492.125 L123 492.125 L123 492.125 L123 492.125 L123 492.125 L123 492.125 L123 492.125 L123 492.125 L123 492.125 L123 492.125 L123 492.125 L123 492.125 L122 492.125 L122 492.125 L122 492.125 L122 492.125 L122 492.125 L122 492.125 L122 492.125 L122 492.125 L122 492.125 L122 492.125 L122 492.125 L123 492.125 L123 492.125 L124 492.125 L126 491.125 L127 491.125 L127 491.125 L130 490.125 L131 490.125 L133 490.125 L133 490.125 L134 490.125 L135 490.125 L136 489.125 L137 489.125 L139 489.125 L141 488.125 L143 488.125 L145 487.125 L147 486.125 L149 486.125 L150 486.125 L151 485.125 L153 485.125 L156 484.125 L159 483.125 L161 483.125 L162 483.125 L165 483.125 L167 483.125 L170 482.125 L173 482.125 L174 482.125 L175 482.125 L178 482.125 L180 482.125 L182 482.125 L183 482.125 L184 482.125 L185 482.125 L187 482.125 L190 482.125 L193 481.125 L193 481.125 L194 481.125 L198 480.125 L201 479.125 L202 479.125 L204 478.125 L205 478.125 L208 477.125 L211 476.125 L214 476.125 L215 475.125 L216 475.125 L218 475.125 L219 474.125 L222 473.125 L224 473.125 L226 472.125 L228 471.125 L232 469.125 L234 469.125 L237 467.125 L239 466.125 L240 466.125 L242 465.125 L245 464.125 L246 464.125 L249 463.125 L250 463.125 L250 463.125 L252 462.125 L254 462.125 L256 462.125 L257 461.125 L258 461.125 L259 461.125 L261 461.125 L263 460.125 L266 459.125 L267 459.125 L269 459.125 L270 459.125 L271 458.125 L274 458.125 L274 458.125 L275 458.125 L277 457.125 L278 457.125 L279 457.125 L280 457.125 L281 456.125 L282 456.125 L283 456.125 L283 456.125 L283 456.125 L283 456.125 L282 456.125 "/><path index="54" stroke-width="2" stroke="#f90101" fill="none" d="M327 363.125 L327 363.125 L326 364.125 L326 365.125 L325 366.125 L325 366.125 L325 366.125 L325 367.125 L324 367.125 L324 367.125 L324 368.125 L324 368.125 L324 368.125 "/><path index="55" stroke-width="2" stroke="#f90101" fill="none" d="M331 368.125 L331 368.125 L328 367.125 L327 366.125 L327 366.125 L326 366.125 L326 366.125 "/><path index="56" stroke-width="2" stroke="#f90101" fill="none" d="M323 366.125 L323 366.125 L323 366.125 L323 366.125 L324 366.125 L324 366.125 L324 365.125 L324 365.125 L324 365.125 L325 364.125 L325 364.125 L325 364.125 L326 363.125 L326 362.125 L326 361.125 L327 361.125 L327 361.125 L327 360.125 L328 359.125 L329 358.125 L329 357.125 L329 357.125 L330 356.125 L331 355.125 L332 354.125 L332 353.125 L333 353.125 L333 353.125 L335 352.125 L336 351.125 L339 350.125 L340 350.125 L341 350.125 L342 350.125 L344 350.125 L346 350.125 L347 350.125 L348 350.125 L349 350.125 L352 350.125 L354 350.125 L356 350.125 L357 351.125 L358 351.125 L360 351.125 L362 352.125 L366 354.125 L367 354.125 L369 354.125 L371 355.125 L374 356.125 L377 358.125 L378 358.125 L379 359.125 L380 359.125 L383 361.125 L384 362.125 L385 362.125 L387 363.125 L388 364.125 L389 365.125 L391 366.125 L393 367.125 L395 368.125 L396 369.125 L397 370.125 L401 372.125 L403 373.125 L404 373.125 L405 374.125 L407 375.125 L409 376.125 L411 377.125 L415 379.125 L416 380.125 L418 381.125 L420 382.125 L423 384.125 L426 385.125 L429 387.125 L430 388.125 L432 389.125 L436 392.125 L438 393.125 L440 395.125 L441 396.125 L443 398.125 L445 400.125 L447 402.125 L448 403.125 L450 405.125 L451 406.125 L451 407.125 L455 410.125 L457 412.125 L459 414.125 L459 414.125 L460 415.125 L462 416.125 L463 417.125 L465 418.125 L467 419.125 L468 420.125 L469 420.125 L472 422.125 L474 422.125 L477 424.125 L477 424.125 L478 425.125 L481 427.125 L483 428.125 L485 429.125 L486 430.125 L488 431.125 L490 432.125 L492 432.125 L493 433.125 L495 433.125 L496 434.125 L497 434.125 L500 436.125 L502 437.125 L505 439.125 L506 439.125 L506 440.125 L508 441.125 L510 443.125 L512 444.125 L513 445.125 L514 445.125 L516 447.125 L516 448.125 L518 449.125 L520 450.125 L521 452.125 L523 453.125 L525 456.125 L527 457.125 L528 457.125 L529 459.125 L530 459.125 L532 461.125 L533 462.125 L534 463.125 L536 464.125 L536 464.125 L537 465.125 L539 467.125 L540 467.125 L541 468.125 L541 468.125 L542 469.125 L543 470.125 L544 470.125 L546 471.125 L547 472.125 L548 473.125 L549 474.125 L550 475.125 L551 475.125 L553 476.125 L553 476.125 L554 477.125 L555 477.125 L557 478.125 L558 479.125 L558 479.125 L559 479.125 L560 480.125 L562 481.125 L563 482.125 L565 484.125 L566 484.125 L567 486.125 L569 488.125 L571 490.125 L572 491.125 L572 492.125 L573 492.125 L574 493.125 L575 494.125 L575 494.125 L576 494.125 L576 495.125 L577 495.125 L578 496.125 L579 496.125 L580 496.125 L581 497.125 L581 497.125 L583 497.125 "/><path index="57" stroke-width="2" stroke="#f90101" fill="none" d="M270 459.125 L270 459.125 L270 459.125 L270 459.125 L270 459.125 L270 459.125 L271 459.125 L271 459.125 L272 459.125 L273 459.125 L274 459.125 L275 459.125 L276 459.125 L277 459.125 L277 459.125 L278 459.125 L279 459.125 L281 458.125 L282 458.125 L282 457.125 L283 457.125 L284 456.125 L284 456.125 L285 455.125 L285 455.125 L286 455.125 L286 454.125 L287 453.125 L288 452.125 L289 452.125 L289 451.125 L290 450.125 L290 449.125 L291 448.125 L292 447.125 L292 446.125 L292 446.125 L292 445.125 L293 445.125 L293 444.125 L293 444.125 L293 444.125 L293 444.125 L293 444.125 L293 444.125 L293 444.125 L293 444.125 L293 445.125 L292 445.125 L292 446.125 L291 447.125 L291 448.125 L291 448.125 L290 449.125 L289 451.125 L288 452.125 L288 453.125 L287 454.125 L285 456.125 L284 457.125 L281 459.125 L279 461.125 L278 463.125 L274 465.125 "/><path index="58" stroke-width="2" stroke="#f90101" fill="none" d="M117 550.125 L117 550.125 L117 550.125 L117 550.125 L117 550.125 L118 550.125 L119 550.125 L119 550.125 L120 550.125 L121 550.125 L122 550.125 L124 550.125 L125 550.125 L125 550.125 L127 550.125 L129 550.125 L130 550.125 L133 550.125 L133 550.125 L135 549.125 L137 549.125 L138 549.125 L141 548.125 L142 548.125 L143 548.125 L144 547.125 L147 547.125 L149 547.125 L153 546.125 L154 546.125 L156 545.125 L158 545.125 L160 545.125 L163 544.125 L164 544.125 L165 544.125 L167 544.125 L169 543.125 L170 543.125 L172 543.125 L174 542.125 L175 542.125 L176 542.125 L178 542.125 L178 542.125 L179 542.125 L181 541.125 L182 541.125 L184 541.125 L185 541.125 L186 541.125 L187 541.125 L189 541.125 L191 542.125 L193 542.125 L194 542.125 L196 543.125 L199 543.125 L201 543.125 L204 544.125 L206 544.125 L208 544.125 L211 544.125 L214 544.125 L219 544.125 L223 544.125 L225 543.125 L228 543.125 L231 543.125 L235 543.125 L241 543.125 L242 543.125 L244 543.125 L249 543.125 L251 543.125 L255 542.125 L257 542.125 L258 542.125 L260 542.125 L263 542.125 L267 542.125 L271 541.125 L272 541.125 L275 541.125 L278 540.125 L281 539.125 L284 539.125 L286 539.125 L287 539.125 L290 539.125 L291 538.125 L292 538.125 L293 538.125 L295 537.125 L296 537.125 L298 536.125 L300 535.125 L304 533.125 L305 533.125 L307 531.125 L309 529.125 L313 526.125 L316 522.125 L318 520.125 L319 518.125 L320 517.125 L323 512.125 L325 510.125 L328 504.125 L329 503.125 L330 501.125 L333 497.125 L334 495.125 L337 490.125 L338 487.125 L340 481.125 L342 475.125 L343 472.125 L345 468.125 L346 467.125 L346 465.125 L348 461.125 L349 458.125 L351 453.125 L351 451.125 L351 450.125 L353 446.125 L354 442.125 L355 438.125 L355 436.125 L355 434.125 L355 433.125 L356 427.125 L357 423.125 L358 417.125 L358 414.125 L359 409.125 L359 402.125 L360 397.125 L360 391.125 L361 387.125 L361 384.125 L362 380.125 L363 373.125 L364 366.125 L365 359.125 L366 357.125 L366 354.125 L367 347.125 L369 343.125 L370 338.125 L371 335.125 L372 333.125 L372 332.125 L373 329.125 L374 324.125 L375 319.125 L376 316.125 L377 313.125 L379 305.125 L380 298.125 L384 284.125 L385 280.125 L386 275.125 L388 269.125 L390 264.125 L392 258.125 L393 255.125 L393 254.125 L395 252.125 L396 251.125 L397 250.125 L399 249.125 L399 249.125 L400 248.125 L403 247.125 L406 245.125 L408 244.125 L412 241.125 L414 240.125 L419 238.125 L425 236.125 L428 235.125 L434 235.125 L436 234.125 L438 234.125 L443 234.125 L448 234.125 L451 234.125 L454 235.125 L457 235.125 L460 236.125 L462 236.125 L465 236.125 L468 237.125 L469 237.125 L472 238.125 L476 239.125 L480 242.125 L483 243.125 L484 244.125 L486 246.125 L489 248.125 L491 249.125 L494 252.125 L495 254.125 L496 255.125 L498 258.125 L500 263.125 L500 265.125 L501 270.125 L501 271.125 L501 273.125 L501 281.125 L501 285.125 L500 289.125 L500 293.125 L500 297.125 L500 304.125 L500 308.125 L500 312.125 L499 317.125 L499 318.125 L499 321.125 L498 326.125 L497 332.125 L497 337.125 L497 339.125 L497 342.125 L497 351.125 L497 355.125 L497 360.125 L497 362.125 L497 366.125 L497 372.125 L498 376.125 L498 382.125 L498 386.125 L498 391.125 L498 395.125 L498 401.125 L498 405.125 L499 412.125 L499 414.125 L499 417.125 L499 425.125 L499 429.125 L499 433.125 L498 437.125 L498 441.125 L498 447.125 L498 452.125 L498 454.125 L498 462.125 L499 464.125 L499 467.125 L501 472.125 L502 477.125 L503 479.125 L504 481.125 L506 483.125 L507 486.125 L510 490.125 L513 495.125 L516 498.125 L517 499.125 L519 503.125 L521 505.125 L524 508.125 L527 511.125 L527 512.125 L528 513.125 L530 515.125 L533 518.125 L536 521.125 L537 522.125 L539 525.125 L541 527.125 L544 529.125 L546 530.125 L547 531.125 L551 533.125 L555 535.125 L558 536.125 L565 539.125 L569 540.125 L571 541.125 L575 542.125 L578 544.125 L583 546.125 L586 547.125 L588 548.125 L589 549.125 "/><path index="59" stroke-width="2" stroke="#f90101" fill="none" d=""/><path index="60" stroke-width="2" stroke="#f90101" fill="none" d=""/><path index="61" stroke-width="2" stroke="#f90101" fill="none" d=""/><path index="62" stroke-width="2" stroke="#f90101" fill="none" d=""/><path index="63" stroke-width="2" stroke="#f90101" fill="none" d=""/><path index="64" stroke-width="2" stroke="#f90101" fill="none" d=""/><path index="65" stroke-width="2" stroke="#f90101" fill="none" d=""/><path index="66" stroke-width="2" stroke="#f90101" fill="none" d=""/><path index="67" stroke-width="2" stroke="#f90101" fill="none" d=""/><path index="68" stroke-width="2" stroke="#f90101" fill="none" d=""/><path index="69" stroke-width="2" stroke="#f90101" fill="none" d=""/><path index="70" stroke-width="2" stroke="#f90101" fill="none" d=""/><path index="71" stroke-width="2" stroke="#f90101" fill="none" d=""/></svg>