<svg xmlns="http://www.w3.org/2000/svg" height="200" width="200"><path index="0" stroke-width="2" stroke="#ff0000" fill="none" d="M89 97.125 L89 97.125 L89 97.125 L89 97.125 L88 97.125 L88 97.125 L88 97.125 L88 97.125 L88 97.125 "/><path index="1" stroke-width="2" stroke="#ff0000" fill="none" d="M61 127.125 L61 127.125 L62 127.125 L62 127.125 L62 128.125 L63 128.125 L63 128.125 L64 130.125 L64 130.125 L66 131.125 L66 132.125 L67 132.125 L68 134.125 L69 134.125 L70 135.125 L72 135.125 L72 136.125 L73 136.125 L75 137.125 L76 137.125 L78 138.125 L78 138.125 L79 138.125 L80 139.125 L81 139.125 L84 139.125 L85 139.125 L87 139.125 L88 139.125 L90 139.125 L91 139.125 L93 139.125 L94 139.125 L95 139.125 L98 139.125 L100 139.125 L101 139.125 L102 139.125 L104 139.125 L107 139.125 L109 138.125 L110 138.125 L113 137.125 L114 137.125 L115 137.125 L118 136.125 L119 136.125 L121 135.125 L121 134.125 L122 134.125 L123 133.125 L125 132.125 L125 132.125 L126 131.125 L127 130.125 L128 129.125 L129 128.125 L129 128.125 L130 127.125 L130 126.125 L130 126.125 L130 125.125 L131 124.125 L132 123.125 L132 122.125 L132 121.125 L132 120.125 L133 119.125 L133 117.125 L134 116.125 L134 115.125 L134 114.125 L134 113.125 L135 112.125 L135 110.125 L135 110.125 L135 109.125 L135 108.125 L135 107.125 L135 105.125 L135 104.125 L135 103.125 L135 102.125 L135 100.125 L135 99.125 L135 97.125 L135 97.125 L134 95.125 L134 94.125 L134 92.125 L134 91.125 L133 91.125 L133 90.125 L133 89.125 L132 87.125 L131 86.125 L130 85.125 L130 84.125 L130 83.125 L129 82.125 L128 81.125 L126 79.125 L126 79.125 L125 78.125 L125 77.125 L123 76.125 L123 75.125 L122 74.125 L122 74.125 L121 74.125 L121 73.125 L121 73.125 L121 73.125 L119 72.125 L117 71.125 L116 70.125 L115 69.125 L112 69.125 L111 68.125 L110 68.125 L108 67.125 L107 67.125 L106 67.125 L105 67.125 L103 66.125 L102 66.125 L101 66.125 L100 66.125 L99 65.125 L98 65.125 L97 65.125 L96 65.125 L95 65.125 L93 65.125 L92 65.125 L91 65.125 L91 65.125 L89 65.125 L88 65.125 L86 65.125 L85 65.125 L84 65.125 L83 65.125 L82 65.125 L80 66.125 L79 67.125 L78 67.125 L77 67.125 L75 68.125 L74 69.125 L73 69.125 L72 70.125 L71 70.125 L70 71.125 L70 71.125 L68 72.125 L68 73.125 L68 73.125 L67 73.125 L66 75.125 L65 76.125 L64 77.125 L64 77.125 L64 77.125 L63 78.125 L63 78.125 L62 80.125 L61 81.125 L61 81.125 L61 82.125 L60 82.125 L60 83.125 L59 84.125 L59 84.125 L59 84.125 L59 86.125 L58 87.125 L58 88.125 L58 88.125 L58 88.125 L58 89.125 L58 90.125 L58 92.125 L58 93.125 L58 93.125 L58 94.125 L58 95.125 L58 96.125 L58 97.125 L58 98.125 L58 98.125 L59 100.125 L59 101.125 L59 102.125 L59 103.125 L59 104.125 L60 105.125 L60 105.125 L60 107.125 L60 107.125 L60 108.125 L60 109.125 L60 110.125 L60 111.125 L61 113.125 L61 113.125 L61 114.125 L61 115.125 L61 116.125 L61 118.125 L61 118.125 L61 119.125 L61 120.125 L62 122.125 L62 123.125 L62 124.125 L63 125.125 L63 125.125 L63 126.125 L64 127.125 L65 127.125 L66 128.125 L67 129.125 L68 130.125 L70 131.125 L72 131.125 "/><path index="2" stroke-width="2" stroke="#ff0000" fill="none" d="M105 59.125 L105 59.125 L105 59.125 L105 59.125 L105 59.125 L105 59.125 L105 60.125 L105 62.125 L105 65.125 L105 68.125 L104 69.125 L104 71.125 L104 73.125 L104 73.125 L104 73.125 L104 73.125 L104 73.125 L104 72.125 L105 69.125 L106 66.125 L107 65.125 L107 63.125 L107 62.125 L108 61.125 L108 61.125 L108 61.125 L108 61.125 L108 61.125 L108 61.125 L108 63.125 L107 63.125 L107 64.125 L107 66.125 "/><path index="3" stroke-width="2" stroke="#ff0000" fill="none" d="M129 120.125 L129 120.125 L129 120.125 L129 120.125 L129 120.125 L129 120.125 L129 120.125 L129 120.125 L129 120.125 L129 120.125 L129 121.125 L131 121.125 L131 122.125 L133 122.125 L134 123.125 L135 123.125 L137 124.125 L138 124.125 L138 124.125 L139 124.125 L139 124.125 L140 125.125 L141 125.125 L141 125.125 L141 125.125 L141 125.125 L141 125.125 L141 125.125 L141 125.125 L141 125.125 L140 125.125 L139 125.125 L137 124.125 L136 124.125 L136 123.125 L134 122.125 L133 122.125 "/><path index="4" stroke-width="2" stroke="#ff0000" fill="none" d="M148 122.125 L148 122.125 L148 122.125 L148 122.125 L148 122.125 L148 122.125 L148 122.125 L148 122.125 L148 122.125 L148 122.125 L148 121.125 L148 121.125 L148 120.125 L148 120.125 L148 119.125 L148 119.125 L148 117.125 L148 117.125 L149 116.125 L149 115.125 L149 115.125 L149 114.125 L149 113.125 L149 112.125 L149 112.125 L149 111.125 L149 111.125 L149 110.125 L149 108.125 L149 108.125 L149 107.125 L149 106.125 L149 105.125 L149 105.125 L148 104.125 L148 103.125 L148 103.125 L148 102.125 L148 101.125 L148 100.125 L147 100.125 L147 99.125 L147 99.125 L147 97.125 L147 97.125 L146 96.125 L146 95.125 L146 95.125 L146 93.125 L146 93.125 L145 92.125 L145 91.125 L145 90.125 L145 90.125 L145 88.125 L144 87.125 L144 87.125 L144 86.125 L144 86.125 L144 85.125 L144 84.125 L143 84.125 L143 83.125 L143 83.125 L143 82.125 L143 82.125 L142 81.125 L142 80.125 L142 80.125 L142 80.125 L141 79.125 L141 79.125 L141 78.125 L141 78.125 L140 77.125 L140 77.125 L140 76.125 L140 76.125 L139 76.125 L139 76.125 L139 75.125 L138 75.125 L138 74.125 L137 74.125 L137 73.125 L137 73.125 L136 73.125 L136 72.125 L135 72.125 L135 72.125 L135 71.125 L134 71.125 L134 71.125 L133 70.125 L133 70.125 L133 70.125 L133 69.125 L132 69.125 L132 69.125 L132 68.125 L131 68.125 L131 68.125 L130 67.125 L130 67.125 L130 66.125 L129 66.125 L129 66.125 L129 65.125 L128 65.125 L128 65.125 L127 64.125 L127 64.125 L127 64.125 L127 64.125 L127 64.125 L126 64.125 L126 63.125 L125 63.125 L125 63.125 L125 63.125 L124 62.125 L124 62.125 L124 62.125 L124 62.125 L123 62.125 L123 62.125 L123 62.125 L122 61.125 L122 61.125 L122 61.125 L122 61.125 L121 61.125 L121 61.125 L121 61.125 L121 61.125 L121 61.125 L120 60.125 L120 60.125 L120 60.125 L120 60.125 L119 60.125 L119 60.125 L119 59.125 L118 59.125 L118 59.125 L118 59.125 L118 59.125 L117 59.125 L117 59.125 L117 59.125 L117 59.125 L117 58.125 L116 58.125 L116 58.125 L116 58.125 L116 58.125 L115 58.125 L115 58.125 L115 58.125 L115 58.125 L115 57.125 L115 57.125 L114 57.125 L114 57.125 L114 57.125 L114 57.125 L114 57.125 L114 57.125 L114 57.125 L114 57.125 L114 57.125 L114 57.125 L114 57.125 L114 57.125 L114 57.125 L114 57.125 L114 57.125 L114 57.125 L114 57.125 L114 58.125 L114 58.125 L114 59.125 L114 59.125 L114 60.125 L114 60.125 L115 61.125 L115 61.125 L115 62.125 L115 62.125 L115 63.125 L115 63.125 L115 63.125 L115 63.125 L116 64.125 L116 64.125 L116 64.125 L116 64.125 L116 64.125 L116 64.125 L116 65.125 L116 65.125 L116 65.125 L116 65.125 L116 65.125 L116 65.125 L116 65.125 L116 65.125 L116 65.125 L116 65.125 L116 65.125 L116 65.125 L116 64.125 L116 64.125 L116 64.125 L116 64.125 L116 63.125 L116 63.125 L116 62.125 L116 62.125 L116 61.125 L116 61.125 L116 60.125 L116 60.125 L116 59.125 L116 59.125 L116 57.125 L116 57.125 L116 57.125 L116 57.125 L116 57.125 L116 57.125 L116 57.125 L116 57.125 L116 57.125 L116 57.125 L116 57.125 L116 57.125 L116 57.125 L116 57.125 L116 57.125 L116 57.125 L116 57.125 L116 57.125 L117 57.125 L118 57.125 L118 57.125 L119 57.125 L120 57.125 L121 57.125 L122 56.125 L122 56.125 L122 56.125 L122 56.125 L122 56.125 L123 56.125 L123 56.125 L123 56.125 L123 56.125 L123 56.125 "/><path index="5" stroke-width="2" stroke="#ff0000" fill="none" d="M149 128.125 L149 128.125 L149 128.125 L149 128.125 L149 128.125 L150 129.125 L150 130.125 L150 131.125 L150 132.125 L150 133.125 L150 134.125 L150 135.125 L150 136.125 L150 136.125 L151 138.125 L151 139.125 L151 140.125 L151 142.125 L151 142.125 "/><path index="6" stroke-width="2" stroke="#ff0000" fill="none" d="M148 135.125 L148 135.125 L148 135.125 L148 135.125 L149 135.125 L150 135.125 L150 135.125 L152 135.125 L154 135.125 L155 135.125 L155 135.125 "/><path index="7" stroke-width="2" stroke="#ff0000" fill="none" d="M162 142.125 L162 142.125 L162 142.125 L162 142.125 L161 142.125 L160 142.125 L160 142.125 L159 142.125 L159 142.125 L159 142.125 L158 143.125 L158 144.125 L157 144.125 L157 144.125 L157 145.125 L157 145.125 L157 146.125 L157 147.125 L157 147.125 L157 147.125 L158 148.125 L158 148.125 L159 148.125 L159 148.125 L159 149.125 L160 149.125 L161 149.125 L161 149.125 L162 149.125 L162 149.125 L162 149.125 L163 149.125 L163 148.125 L164 148.125 L164 148.125 L164 148.125 L164 147.125 L165 147.125 L165 147.125 L165 147.125 L165 147.125 L165 146.125 L165 146.125 L165 145.125 L165 145.125 L165 144.125 L165 144.125 L165 144.125 L165 144.125 L165 144.125 L165 143.125 L165 143.125 L164 143.125 L164 143.125 L164 142.125 L163 142.125 L163 142.125 L163 142.125 L161 142.125 "/><path index="8" stroke-width="2" stroke="#ff0000" fill="none" d="M164 72.125 L164 72.125 L164 72.125 L164 72.125 L164 72.125 L164 72.125 L164 72.125 L164 72.125 L164 72.125 L164 72.125 L164 72.125 L164 72.125 L164 72.125 L164 72.125 L164 73.125 L164 73.125 L164 73.125 L164 73.125 L164 73.125 L163 73.125 L163 73.125 L163 73.125 L163 73.125 L163 73.125 L163 73.125 L163 73.125 L163 73.125 L163 73.125 L163 73.125 L163 74.125 L163 74.125 L163 74.125 L162 74.125 L162 75.125 L162 75.125 L162 75.125 L162 75.125 L162 75.125 L162 76.125 L161 76.125 L161 76.125 L161 77.125 L161 77.125 L161 77.125 L161 78.125 L161 78.125 L161 78.125 L161 78.125 L161 78.125 L161 79.125 L160 79.125 L160 79.125 L160 80.125 L160 80.125 L160 80.125 L160 81.125 L160 81.125 L160 81.125 L160 81.125 L160 81.125 L160 81.125 L160 82.125 L160 82.125 L160 82.125 L160 82.125 L160 82.125 L160 82.125 L160 82.125 L160 82.125 L160 82.125 L160 82.125 L160 82.125 L160 82.125 L161 82.125 L161 82.125 L161 82.125 L162 82.125 L162 82.125 L163 81.125 L164 81.125 L164 81.125 L164 81.125 L164 81.125 L165 81.125 L165 81.125 L165 81.125 L165 81.125 L166 81.125 L166 81.125 L166 81.125 L166 81.125 L166 81.125 L167 81.125 L167 81.125 L167 81.125 L168 81.125 L168 81.125 L168 81.125 L169 81.125 L169 81.125 L169 81.125 L169 81.125 L169 81.125 L170 81.125 L170 81.125 L170 81.125 L171 81.125 L171 81.125 L171 81.125 L171 81.125 L171 81.125 L171 81.125 L171 81.125 L171 81.125 L171 81.125 L171 81.125 L171 81.125 L171 81.125 L171 81.125 L171 81.125 L171 81.125 L171 81.125 L171 81.125 L171 81.125 L171 81.125 L171 81.125 L171 81.125 L171 81.125 L171 81.125 L171 81.125 L171 81.125 L171 81.125 L170 80.125 L170 80.125 L170 80.125 L170 80.125 L170 79.125 L169 79.125 L169 79.125 L169 79.125 L169 79.125 L169 78.125 L168 78.125 L168 77.125 L168 77.125 L168 77.125 L167 76.125 L167 76.125 L167 75.125 L167 75.125 L166 75.125 L166 75.125 L166 75.125 L166 74.125 L166 74.125 L166 74.125 L166 74.125 L166 74.125 L165 73.125 L165 73.125 L165 73.125 L165 73.125 L165 73.125 L165 73.125 L165 73.125 L165 73.125 L165 73.125 "/><path index="9" stroke-width="2" stroke="#ff0000" fill="none" d="M179 58.125 L179 58.125 L179 58.125 L179 58.125 L179 58.125 L179 58.125 L179 59.125 L179 60.125 L180 60.125 L180 62.125 L180 63.125 L181 65.125 L181 67.125 L181 68.125 L181 69.125 L182 71.125 L182 72.125 L182 73.125 L182 74.125 L182 74.125 L182 75.125 L182 75.125 L182 75.125 L182 76.125 L182 76.125 L182 76.125 L182 76.125 L182 77.125 L182 77.125 L182 78.125 L182 78.125 L182 78.125 L182 78.125 L182 78.125 L182 78.125 L182 78.125 L182 78.125 L182 78.125 L182 78.125 L182 77.125 L182 77.125 L182 77.125 L182 75.125 L182 75.125 L182 74.125 L182 74.125 L182 74.125 L182 73.125 L182 73.125 L182 72.125 L182 72.125 L183 71.125 L183 71.125 L183 71.125 L183 71.125 L184 71.125 L184 71.125 L185 71.125 L185 71.125 L186 71.125 L187 71.125 L187 71.125 L188 72.125 L188 72.125 L188 72.125 L189 73.125 L189 73.125 L189 73.125 L189 74.125 L189 75.125 L189 75.125 L189 76.125 L189 76.125 L189 76.125 L189 77.125 L189 77.125 L189 77.125 L189 77.125 L189 78.125 L189 78.125 L189 78.125 L189 78.125 L189 78.125 L189 78.125 L188 78.125 L188 78.125 L187 78.125 L187 78.125 L186 79.125 L186 79.125 L185 79.125 "/><path index="10" stroke-width="2" stroke="#ff0000" fill="none" d="M109 70.125 L109 70.125 L109 70.125 L109 70.125 L109 70.125 L109 70.125 L109 70.125 L109 70.125 L108 70.125 L108 70.125 L108 70.125 L108 70.125 L108 70.125 L108 70.125 L108 70.125 L108 70.125 L108 70.125 L108 70.125 L108 70.125 L108 70.125 L108 70.125 L108 70.125 L108 70.125 L107 70.125 L107 71.125 L107 71.125 L107 71.125 L107 71.125 L106 71.125 L106 72.125 L106 72.125 L105 73.125 L105 73.125 L104 74.125 L104 75.125 L104 76.125 L103 76.125 L103 77.125 L103 78.125 L102 78.125 L102 79.125 L102 79.125 L102 80.125 L101 81.125 L101 81.125 L101 82.125 L100 82.125 L100 83.125 L100 83.125 L100 84.125 L100 84.125 L99 85.125 L99 85.125 L99 85.125 L99 86.125 L98 86.125 L98 87.125 L98 87.125 L97 87.125 L97 88.125 L97 89.125 L96 89.125 L96 89.125 L96 90.125 L96 90.125 L95 90.125 L95 91.125 L94 92.125 L94 92.125 L94 92.125 L94 93.125 L93 93.125 L93 94.125 L92 94.125 L92 94.125 L92 95.125 L92 95.125 L92 95.125 L91 96.125 L91 96.125 L91 96.125 L91 96.125 L91 96.125 L91 96.125 L91 96.125 L91 97.125 L90 97.125 L90 97.125 L90 97.125 L90 97.125 L90 97.125 L90 97.125 L90 97.125 L90 97.125 L90 97.125 L90 97.125 L90 97.125 L90 97.125 L90 97.125 L90 97.125 L90 97.125 L90 97.125 L90 97.125 L90 97.125 L90 97.125 L90 97.125 L91 98.125 L91 98.125 L92 98.125 L93 98.125 L94 99.125 L94 99.125 L95 99.125 L95 99.125 L96 100.125 L97 100.125 L97 100.125 L97 100.125 L98 101.125 L98 101.125 L99 101.125 L100 102.125 L100 102.125 L101 102.125 L102 103.125 L102 103.125 L104 104.125 L104 104.125 L105 104.125 L106 105.125 L107 105.125 L107 106.125 L109 107.125 L109 107.125 L110 107.125 L111 108.125 L111 108.125 L112 108.125 L113 108.125 L113 109.125 L114 109.125 L116 110.125 L117 110.125 L118 110.125 L118 111.125 L118 111.125 L119 111.125 L120 112.125 L121 112.125 L121 113.125 L122 113.125 L122 113.125 L123 114.125 L123 114.125 L124 115.125 L124 115.125 L124 115.125 L125 115.125 L125 116.125 L126 116.125 L126 116.125 L126 117.125 L127 117.125 L127 117.125 L127 117.125 L127 118.125 L127 118.125 L128 118.125 L128 119.125 L129 119.125 L129 119.125 L129 119.125 L129 120.125 L129 120.125 L130 120.125 L130 120.125 L130 120.125 L130 120.125 L130 120.125 L130 120.125 "/><path index="11" stroke-width="2" stroke="#ff0000" fill="none" d="M104 85.125 L104 85.125 L104 85.125 L104 85.125 L104 85.125 L104 85.125 L104 85.125 L104 85.125 L104 86.125 L104 86.125 L104 86.125 L104 86.125 L104 86.125 L104 86.125 L104 86.125 L104 86.125 L104 87.125 L105 87.125 L106 87.125 L106 88.125 L107 89.125 L108 89.125 L108 90.125 L109 90.125 L109 90.125 L109 91.125 L110 92.125 L110 92.125 L110 93.125 L111 93.125 L111 93.125 L111 94.125 L111 94.125 L111 95.125 L111 95.125 L111 95.125 L112 96.125 L112 96.125 L112 97.125 L112 97.125 L112 97.125 L112 98.125 L112 98.125 L112 99.125 L112 99.125 L112 99.125 L112 100.125 L112 100.125 L112 100.125 L112 101.125 L112 101.125 L112 101.125 L112 101.125 L112 101.125 L112 101.125 L112 101.125 "/><path index="12" stroke-width="2" stroke="#ff0000" fill="none" d="M104 95.125 L104 95.125 L104 95.125 L104 95.125 L104 95.125 L104 95.125 L104 95.125 L104 95.125 L104 95.125 L104 95.125 L104 95.125 L104 95.125 L104 95.125 L104 96.125 L104 96.125 L104 98.125 L104 98.125 L104 100.125 L105 102.125 L105 104.125 L105 106.125 L106 107.125 L106 108.125 L106 111.125 L106 112.125 L107 113.125 L107 116.125 L108 119.125 L108 121.125 L108 123.125 L109 124.125 L109 126.125 L110 127.125 L110 129.125 L111 131.125 L112 134.125 L112 136.125 L112 137.125 L113 139.125 L114 143.125 L114 145.125 L115 146.125 L115 149.125 L115 149.125 L116 152.125 L117 155.125 L117 157.125 L117 160.125 L118 160.125 L118 161.125 L118 163.125 L118 164.125 L118 164.125 "/><path index="13" stroke-width="2" stroke="#ff0000" fill="none" d="M119 173.125 L119 173.125 L119 173.125 L119 173.125 L119 173.125 L119 173.125 L119 173.125 L119 173.125 L118 174.125 L118 175.125 L118 176.125 L118 176.125 L118 177.125 L117 178.125 L117 179.125 L117 179.125 L117 179.125 L117 180.125 L117 180.125 L117 180.125 L116 180.125 L116 180.125 L116 180.125 L116 181.125 L116 181.125 L116 181.125 L116 181.125 L116 181.125 L116 181.125 L116 181.125 L116 181.125 L116 181.125 L116 181.125 L116 181.125 L116 181.125 L116 181.125 L116 181.125 L116 181.125 L116 181.125 L116 181.125 L116 181.125 L117 181.125 L118 181.125 L118 181.125 L118 181.125 L119 181.125 L119 181.125 L119 181.125 L120 180.125 L120 180.125 L120 180.125 L121 180.125 L121 180.125 L122 180.125 L122 180.125 L122 180.125 L122 180.125 L123 180.125 L123 180.125 L123 179.125 L123 179.125 L123 179.125 L124 179.125 L124 179.125 L124 179.125 L124 179.125 L125 179.125 L125 179.125 L125 179.125 L125 179.125 L125 179.125 L125 179.125 L125 179.125 L125 179.125 L125 179.125 L125 179.125 L125 179.125 L125 179.125 L125 179.125 L124 178.125 L124 178.125 L124 177.125 L124 177.125 L123 176.125 L123 176.125 L123 176.125 L122 175.125 L122 175.125 L122 175.125 L121 175.125 L121 174.125 L121 174.125 L121 174.125 L121 174.125 L121 174.125 L121 174.125 L121 174.125 "/><path index="14" stroke-width="2" stroke="#ff0000" fill="none" d="M130 176.125 L130 176.125 L130 176.125 L130 176.125 L130 176.125 L130 176.125 L130 177.125 L130 177.125 L130 177.125 L130 177.125 L130 177.125 L130 177.125 L130 177.125 L130 177.125 L130 177.125 L130 177.125 L130 176.125 L131 176.125 L132 175.125 L132 175.125 L132 174.125 L132 173.125 L133 172.125 L133 171.125 L133 171.125 L133 171.125 L133 170.125 L133 170.125 L133 169.125 L133 168.125 L133 168.125 L133 168.125 L133 167.125 L133 167.125 L132 166.125 L132 166.125 L132 166.125 L132 166.125 L131 166.125 L131 166.125 L131 166.125 L131 166.125 L131 166.125 L130 166.125 L130 166.125 L130 166.125 L130 166.125 L130 167.125 L130 167.125 L130 167.125 L130 168.125 L130 169.125 L130 169.125 L130 170.125 L131 170.125 L131 171.125 L132 172.125 L132 172.125 L132 172.125 L132 173.125 L132 174.125 L133 175.125 L133 176.125 L133 177.125 L133 177.125 L134 179.125 L134 179.125 L134 180.125 L135 180.125 L135 181.125 L135 182.125 L135 182.125 L135 183.125 L135 183.125 L135 184.125 "/><path index="15" stroke-width="2" stroke="#ff0000" fill="none" d="M91 82.125 L91 82.125 L91 82.125 L91 82.125 L91 82.125 L91 82.125 L91 82.125 L91 82.125 L91 82.125 L91 82.125 L91 82.125 L91 83.125 L91 84.125 L91 85.125 L91 86.125 L91 86.125 L91 87.125 L91 88.125 L91 89.125 L91 89.125 L91 89.125 L91 89.125 L91 89.125 L91 89.125 L91 89.125 L91 89.125 L91 89.125 L91 89.125 L91 89.125 L91 88.125 L92 87.125 L92 86.125 L92 86.125 L93 85.125 L93 85.125 L94 84.125 L95 83.125 L95 83.125 L95 83.125 L97 83.125 L98 83.125 L99 83.125 L99 83.125 "/><path index="16" stroke-width="2" stroke="#ff0000" fill="none" d="M104 35.125 L104 35.125 L104 35.125 L104 35.125 L104 35.125 L104 35.125 L104 36.125 L105 37.125 L105 39.125 L105 39.125 L105 41.125 L105 42.125 L106 44.125 L106 45.125 L106 46.125 L106 46.125 "/><path index="17" stroke-width="2" stroke="#ff0000" fill="none" d="M103 42.125 L103 42.125 L103 42.125 L103 42.125 L103 42.125 L105 42.125 L106 42.125 L108 41.125 L110 41.125 "/><path index="18" stroke-width="2" stroke="#ff0000" fill="none" d="M115 45.125 L115 45.125 L115 45.125 L115 45.125 L115 45.125 L115 45.125 L115 45.125 L115 45.125 L115 45.125 L115 45.125 L114 45.125 L114 45.125 L114 45.125 L114 45.125 L113 45.125 L113 45.125 L113 45.125 L112 46.125 L112 46.125 L112 46.125 L112 47.125 L112 47.125 L112 47.125 L112 47.125 L112 47.125 L112 47.125 L113 47.125 L113 48.125 L113 48.125 L114 48.125 L114 48.125 L114 48.125 L115 48.125 L115 47.125 L116 47.125 L116 47.125 L116 47.125 L116 46.125 L116 46.125 L116 46.125 L116 46.125 L116 45.125 L116 45.125 L116 44.125 L116 44.125 L116 44.125 L116 44.125 L116 44.125 L116 44.125 L116 44.125 L115 44.125 L115 44.125 L115 44.125 "/><path index="19" stroke-width="2" stroke="#ff0000" fill="none" d="M124 39.125 L124 39.125 L124 39.125 L124 39.125 L124 39.125 L124 39.125 L124 40.125 L125 40.125 L125 40.125 L128 40.125 L129 40.125 L131 40.125 L131 40.125 L132 40.125 L133 40.125 L133 40.125 L133 40.125 L133 40.125 L133 40.125 "/><path index="20" stroke-width="2" stroke="#ff0000" fill="none" d="M128 31.125 L128 31.125 L128 31.125 L128 31.125 L128 32.125 L128 32.125 L128 32.125 L129 33.125 L129 34.125 L129 35.125 L130 37.125 L130 38.125 L130 40.125 L130 41.125 L130 42.125 L131 43.125 L131 44.125 L131 45.125 L131 45.125 L131 46.125 L131 46.125 L131 46.125 "/><path index="21" stroke-width="2" stroke="#ff0000" fill="none" d="M144 32.125 L144 32.125 L144 33.125 L144 34.125 L144 34.125 L144 35.125 L144 36.125 L144 37.125 L144 38.125 L144 38.125 L144 39.125 L144 40.125 L144 41.125 L144 42.125 L144 42.125 L144 42.125 L144 42.125 L144 43.125 L144 43.125 L144 43.125 L144 43.125 L144 43.125 L144 43.125 L144 43.125 L144 43.125 L144 43.125 L145 43.125 L146 43.125 L147 43.125 L147 43.125 L148 43.125 L148 43.125 L149 43.125 L149 43.125 L150 43.125 L150 43.125 L150 43.125 L150 43.125 L150 43.125 L150 43.125 L150 43.125 L150 43.125 L150 43.125 L150 43.125 L150 43.125 L150 43.125 L150 43.125 L150 42.125 L150 41.125 L149 40.125 L149 39.125 L149 38.125 L149 38.125 L148 38.125 L148 37.125 L148 36.125 L148 35.125 L147 35.125 L147 35.125 L147 34.125 L147 34.125 L147 34.125 L146 33.125 L146 33.125 L146 33.125 L146 33.125 L146 33.125 L146 32.125 "/><path index="22" stroke-width="2" stroke="#ff0000" fill="none" d="M157 29.125 L157 29.125 L157 29.125 L157 29.125 L157 29.125 L157 29.125 L157 29.125 L157 29.125 L157 31.125 L157 33.125 L157 35.125 L157 37.125 L157 38.125 L158 39.125 L158 40.125 L158 41.125 L158 41.125 L158 41.125 "/><path index="23" stroke-width="2" stroke="#ff0000" fill="none" d="M154 34.125 L154 34.125 L154 34.125 L154 34.125 L154 34.125 L154 34.125 L155 35.125 L157 35.125 L157 35.125 L159 36.125 L160 36.125 L162 36.125 L164 36.125 L165 36.125 "/><path index="24" stroke-width="2" stroke="#ff0000" fill="none" d="M17 10.125 L17 10.125 L17 10.125 L17 10.125 L17 10.125 L17 10.125 L17 10.125 L17 10.125 L17 10.125 L17 11.125 L17 11.125 L17 12.125 L17 13.125 L16 14.125 L16 14.125 L16 16.125 L16 18.125 L16 19.125 L16 20.125 L15 21.125 L15 21.125 L15 21.125 L15 21.125 L15 22.125 L15 22.125 L15 23.125 L15 23.125 L15 23.125 L15 23.125 L15 23.125 L15 23.125 L15 23.125 L15 23.125 L15 23.125 L15 23.125 L15 23.125 L15 23.125 L15 23.125 L15 23.125 L16 24.125 L17 24.125 L19 24.125 L19 24.125 L19 24.125 L20 24.125 L20 24.125 L20 24.125 L21 24.125 L21 24.125 L22 24.125 L22 24.125 L22 24.125 L23 24.125 L23 24.125 L23 24.125 L23 24.125 L23 24.125 L24 24.125 L24 24.125 L24 24.125 L24 24.125 L24 24.125 L24 24.125 L24 24.125 L24 24.125 L24 24.125 L24 24.125 L24 24.125 L24 23.125 L24 23.125 L24 23.125 L24 23.125 L24 22.125 L24 21.125 L23 21.125 L23 20.125 L23 20.125 L22 19.125 L22 19.125 L22 18.125 L21 18.125 L21 17.125 L21 17.125 L20 16.125 L20 16.125 L20 16.125 L19 15.125 L19 15.125 L19 14.125 L19 14.125 L18 14.125 L18 13.125 L18 13.125 L18 13.125 L18 13.125 L18 13.125 L18 13.125 "/><path index="25" stroke-width="2" stroke="#ff0000" fill="none" d="M30 3.125 L30 3.125 L30 3.125 L30 3.125 L30 3.125 L30 3.125 L30 3.125 L30 3.125 L30 4.125 L31 5.125 L31 6.125 L32 7.125 L32 8.125 L32 9.125 L33 11.125 L33 12.125 L33 13.125 L33 14.125 L34 14.125 L34 15.125 L34 16.125 L34 16.125 L34 17.125 L34 17.125 L34 17.125 L34 17.125 L34 17.125 L34 17.125 L34 17.125 L34 17.125 L34 17.125 L34 17.125 L34 17.125 L34 17.125 L34 17.125 L34 16.125 L34 15.125 L34 14.125 L34 13.125 L34 13.125 L35 12.125 L36 12.125 L36 12.125 L37 12.125 L37 12.125 L39 12.125 L40 12.125 L41 12.125 L42 13.125 L42 13.125 L42 14.125 L42 14.125 L43 16.125 L43 16.125 L43 16.125 L43 17.125 L43 17.125 L42 18.125 L42 18.125 L42 18.125 L41 19.125 L40 19.125 L38 19.125 L38 19.125 L37 19.125 "/><path index="26" stroke-width="2" stroke="#ff0000" fill="none" d="M51 10.125 L51 10.125 L51 10.125 L51 10.125 L51 11.125 L51 11.125 L53 11.125 L53 11.125 L54 11.125 L56 11.125 L57 11.125 "/><path index="27" stroke-width="2" stroke="#ff0000" fill="none" d="M53 17.125 L53 17.125 L53 17.125 L53 17.125 L54 17.125 L54 17.125 L55 18.125 L56 18.125 L57 18.125 "/><path index="28" stroke-width="2" stroke="#ff0000" fill="none" d="M16 33.125 L16 33.125 L16 34.125 L16 35.125 L16 36.125 L16 36.125 L17 38.125 L17 39.125 L18 42.125 L18 42.125 L18 43.125 L18 44.125 L18 44.125 L18 45.125 L18 45.125 L18 45.125 L18 45.125 L18 45.125 L18 45.125 L18 44.125 L18 43.125 L18 42.125 L18 41.125 L19 40.125 L20 39.125 L20 39.125 L21 38.125 L22 38.125 L23 38.125 L25 38.125 L26 38.125 L27 37.125 "/><path index="29" stroke-width="2" stroke="#ff0000" fill="none" d="M34 45.125 L34 45.125 L34 45.125 L34 45.125 L34 45.125 L34 45.125 L34 45.125 L34 45.125 L34 45.125 L34 45.125 L34 45.125 "/><path index="30" stroke-width="2" stroke="#ff0000" fill="none" d="M35 38.125 L35 38.125 L35 38.125 L35 38.125 L35 38.125 L35 38.125 L35 38.125 L35 38.125 L35 38.125 L36 38.125 L36 38.125 L36 38.125 L36 38.125 L36 38.125 L36 38.125 L35 38.125 L35 38.125 L35 38.125 L35 39.125 L35 39.125 L35 40.125 L35 40.125 L35 40.125 L35 40.125 L35 39.125 L35 39.125 L35 39.125 L35 39.125 L35 39.125 L35 39.125 L35 39.125 "/><path index="31" stroke-width="2" stroke="#ff0000" fill="none" d="M83 328.125 L83 329.125 L83 329.125 L83 329.125 "/><path index="32" stroke-width="2" stroke="#ff0000" fill="none" d="M48 29.125 L48 29.125 L48 29.125 L48 29.125 L48 29.125 L48 29.125 L48 29.125 L48 29.125 L48 29.125 L48 29.125 L48 29.125 L48 29.125 L48 30.125 L48 30.125 L48 31.125 L48 32.125 L48 32.125 L48 32.125 L48 33.125 L47 34.125 L47 34.125 L47 35.125 L47 35.125 L47 36.125 L47 37.125 L47 37.125 L47 37.125 L47 37.125 L46 38.125 L46 38.125 L46 39.125 L46 39.125 L46 39.125 L46 40.125 L46 40.125 L46 40.125 L46 41.125 L46 41.125 L46 41.125 L46 41.125 L46 41.125 L46 41.125 L46 41.125 L46 41.125 L46 41.125 L46 41.125 L46 41.125 L46 41.125 L46 41.125 L46 41.125 L46 41.125 L46 41.125 L47 41.125 L47 41.125 L47 41.125 L48 41.125 L49 41.125 L49 41.125 L50 41.125 L50 41.125 L50 41.125 L51 41.125 L52 41.125 L53 41.125 L53 41.125 L53 41.125 L53 41.125 L54 41.125 L55 41.125 L55 41.125 L55 41.125 L55 41.125 L56 41.125 L56 41.125 L57 41.125 L57 41.125 L58 41.125 L58 41.125 L59 41.125 L59 41.125 L59 41.125 L59 41.125 L59 41.125 L59 41.125 L59 41.125 L59 41.125 L59 41.125 L59 41.125 L59 41.125 L59 41.125 L58 40.125 L58 40.125 L57 40.125 L56 39.125 L55 37.125 L55 37.125 L54 36.125 L54 35.125 L53 35.125 L53 35.125 L52 35.125 L52 34.125 L52 34.125 L51 34.125 L51 34.125 L50 33.125 L50 33.125 L50 33.125 L50 33.125 L50 33.125 L49 32.125 L49 32.125 L48 31.125 L48 31.125 L48 31.125 L48 31.125 "/><path index="33" stroke-width="2" stroke="#ff0000" fill="none" d="M66 34.125 L66 34.125 L66 34.125 L66 34.125 L66 34.125 L66 34.125 L66 34.125 L66 34.125 L67 34.125 L68 34.125 L69 34.125 L71 33.125 L71 32.125 L72 32.125 L72 31.125 L73 30.125 L73 29.125 L73 28.125 L73 26.125 L73 26.125 L73 25.125 L73 25.125 L73 24.125 L73 24.125 L72 24.125 L72 24.125 L72 24.125 L71 24.125 L71 24.125 L71 24.125 L71 24.125 L70 25.125 L70 25.125 L70 26.125 L70 27.125 L70 28.125 L70 28.125 L69 30.125 L69 31.125 L69 32.125 L69 32.125 L69 33.125 L69 34.125 L70 36.125 L70 37.125 L71 39.125 L71 40.125 L71 40.125 L71 41.125 L72 43.125 L72 44.125 L72 44.125 L72 45.125 "/><path index="34" stroke-width="2" stroke="#ff0000" fill="none" d="M85 343.125 L85 343.125 L85 343.125 L85 344.125 L85 344.125 L85 344.125 "/><path index="35" stroke-width="2" stroke="#ff0000" fill="none" d=""/><path index="36" stroke-width="2" stroke="#ff0000" fill="none" d=""/><path index="37" stroke-width="2" stroke="#ff0000" fill="none" d=""/></svg>