<svg xmlns="http://www.w3.org/2000/svg" height="100" width="100"><path stroke="red" fill="none" d="M17 24.125 L19 24.125 L20 25.125 L25 28.125 L30 33.125 L32 35.125 L36 38.125 L36 38.125 "/><path stroke="red" fill="none" d="M18 62.125 L19 60.125 L22 56.125 L26 51.125 L30 47.125 L36 40.125 L37 38.125 L39 35.125 "/><path stroke="red" fill="none" d="M55 46.125 L55 49.125 L55 51.125 L55 53.125 L56 54.125 L56 56.125 L56 57.125 "/><path stroke="red" fill="none" d="M31 78.125 L31 78.125 L31 77.125 L31 76.125 L31 75.125 L31 74.125 L31 73.125 L33 72.125 L38 72.125 L41 72.125 L46 72.125 L49 73.125 L50 74.125 L54 80.125 L55 84.125 L56 89.125 L56 92.125 L55 96.125 L52 98.125 L49 101.125 L47 103.125 L45 104.125 L44 104.125 L44 104.125 L44 104.125 L44 104.125 L42 104.125 L40 102.125 L37 99.125 L34 95.125 L31 89.125 L29 84.125 L28 78.125 L28 73.125 L28 70.125 L28 68.125 L28 67.125 L30 66.125 L32 64.125 L35 61.125 L37 58.125 L39 55.125 L41 53.125 L41 52.125 L42 51.125 L41 50.125 L39 49.125 L34 47.125 L29 46.125 L25 45.125 "/><path stroke="red" fill="none" d=""/></svg>